<svg width="529" height="240" viewBox="0 0 529 240" fill="none" xmlns="http://www.w3.org/2000/svg">
<path d="M138.18 74.5V109.6C133.78 112.84 129.08 115.22 124.08 116.74C119.12 118.22 113.8 118.96 108.12 118.96C101.04 118.96 94.62 117.86 88.86 115.66C83.14 113.46 78.24 110.4 74.16 106.48C70.12 102.56 67 97.88 64.8 92.44C62.6 87 61.5 81.06 61.5 74.62C61.5 68.1 62.56 62.12 64.68 56.68C66.8 51.24 69.8 46.56 73.68 42.64C77.6 38.72 82.34 35.68 87.9 33.52C93.46 31.36 99.7 30.28 106.62 30.28C110.14 30.28 113.42 30.56 116.46 31.12C119.54 31.68 122.38 32.46 124.98 33.46C127.62 34.42 130.02 35.6 132.18 37C134.34 38.4 136.32 39.94 138.12 41.62L133.5 48.94C132.78 50.1 131.84 50.82 130.68 51.1C129.52 51.34 128.26 51.04 126.9 50.2C125.58 49.44 124.26 48.68 122.94 47.92C121.62 47.16 120.14 46.5 118.5 45.94C116.9 45.38 115.08 44.92 113.04 44.56C111.04 44.2 108.72 44.02 106.08 44.02C101.8 44.02 97.92 44.74 94.44 46.18C91 47.62 88.06 49.68 85.62 52.36C83.18 55.04 81.3 58.26 79.98 62.02C78.66 65.78 78 69.98 78 74.62C78 79.58 78.7 84.02 80.1 87.94C81.54 91.82 83.54 95.12 86.1 97.84C88.7 100.52 91.82 102.58 95.46 104.02C99.1 105.42 103.16 106.12 107.64 106.12C110.84 106.12 113.7 105.78 116.22 105.1C118.74 104.42 121.2 103.5 123.6 102.34V86.62H112.68C111.64 86.62 110.82 86.34 110.22 85.78C109.66 85.18 109.38 84.46 109.38 83.62V74.5H138.18ZM164.433 67.12C166.353 63.44 168.633 60.56 171.273 58.48C173.913 56.36 177.033 55.3 180.633 55.3C183.473 55.3 185.753 55.92 187.473 57.16L186.513 68.26C186.313 68.98 186.013 69.5 185.613 69.82C185.253 70.1 184.753 70.24 184.113 70.24C183.513 70.24 182.613 70.14 181.413 69.94C180.253 69.74 179.113 69.64 177.993 69.64C176.353 69.64 174.893 69.88 173.613 70.36C172.333 70.84 171.173 71.54 170.133 72.46C169.133 73.34 168.233 74.42 167.433 75.7C166.673 76.98 165.953 78.44 165.273 80.08V118H150.453V56.44H159.153C160.673 56.44 161.733 56.72 162.333 57.28C162.933 57.8 163.333 58.76 163.533 60.16L164.433 67.12Z" fill="black"/>
<path d="M314.42 69.46C313.98 70.02 313.54 70.46 313.1 70.78C312.7 71.1 312.1 71.26 311.3 71.26C310.54 71.26 309.8 71.04 309.08 70.6C308.36 70.12 307.5 69.6 306.5 69.04C305.5 68.44 304.3 67.92 302.9 67.48C301.54 67 299.84 66.76 297.8 66.76C295.2 66.76 292.92 67.24 290.96 68.2C289 69.12 287.36 70.46 286.04 72.22C284.76 73.98 283.8 76.12 283.16 78.64C282.52 81.12 282.2 83.94 282.2 87.1C282.2 90.38 282.54 93.3 283.22 95.86C283.94 98.42 284.96 100.58 286.28 102.34C287.6 104.06 289.2 105.38 291.08 106.3C292.96 107.18 295.08 107.62 297.44 107.62C299.8 107.62 301.7 107.34 303.14 106.78C304.62 106.18 305.86 105.54 306.86 104.86C307.86 104.14 308.72 103.5 309.44 102.94C310.2 102.34 311.04 102.04 311.96 102.04C313.16 102.04 314.06 102.5 314.66 103.42L318.92 108.82C317.28 110.74 315.5 112.36 313.58 113.68C311.66 114.96 309.66 116 307.58 116.8C305.54 117.56 303.42 118.1 301.22 118.42C299.06 118.74 296.9 118.9 294.74 118.9C290.94 118.9 287.36 118.2 284 116.8C280.64 115.36 277.7 113.28 275.18 110.56C272.66 107.84 270.66 104.52 269.18 100.6C267.74 96.64 267.02 92.14 267.02 87.1C267.02 82.58 267.66 78.4 268.94 74.56C270.26 70.68 272.18 67.34 274.7 64.54C277.22 61.7 280.34 59.48 284.06 57.88C287.78 56.28 292.06 55.48 296.9 55.48C301.5 55.48 305.52 56.22 308.96 57.7C312.44 59.18 315.56 61.3 318.32 64.06L314.42 69.46ZM366.816 80.14C366.816 78.22 366.536 76.42 365.976 74.74C365.456 73.02 364.656 71.52 363.576 70.24C362.496 68.96 361.116 67.96 359.436 67.24C357.796 66.48 355.876 66.1 353.676 66.1C349.396 66.1 346.016 67.32 343.536 69.76C341.096 72.2 339.536 75.66 338.856 80.14H366.816ZM338.556 89.08C338.796 92.24 339.356 94.98 340.236 97.3C341.116 99.58 342.276 101.48 343.716 103C345.156 104.48 346.856 105.6 348.816 106.36C350.816 107.08 353.016 107.44 355.416 107.44C357.816 107.44 359.876 107.16 361.596 106.6C363.356 106.04 364.876 105.42 366.156 104.74C367.476 104.06 368.616 103.44 369.576 102.88C370.576 102.32 371.536 102.04 372.456 102.04C373.696 102.04 374.616 102.5 375.216 103.42L379.476 108.82C377.836 110.74 375.996 112.36 373.956 113.68C371.916 114.96 369.776 116 367.536 116.8C365.336 117.56 363.076 118.1 360.756 118.42C358.476 118.74 356.256 118.9 354.096 118.9C349.816 118.9 345.836 118.2 342.156 116.8C338.476 115.36 335.276 113.26 332.556 110.5C329.836 107.7 327.696 104.26 326.136 100.18C324.576 96.06 323.796 91.3 323.796 85.9C323.796 81.7 324.476 77.76 325.836 74.08C327.196 70.36 329.136 67.14 331.656 64.42C334.216 61.66 337.316 59.48 340.956 57.88C344.636 56.28 348.776 55.48 353.376 55.48C357.256 55.48 360.836 56.1 364.116 57.34C367.396 58.58 370.216 60.4 372.576 62.8C374.936 65.16 376.776 68.08 378.096 71.56C379.456 75 380.136 78.94 380.136 83.38C380.136 85.62 379.896 87.14 379.416 87.94C378.936 88.7 378.016 89.08 376.656 89.08H338.556ZM405.238 67.12C407.158 63.44 409.438 60.56 412.078 58.48C414.718 56.36 417.838 55.3 421.438 55.3C424.278 55.3 426.558 55.92 428.278 57.16L427.318 68.26C427.118 68.98 426.818 69.5 426.418 69.82C426.058 70.1 425.558 70.24 424.918 70.24C424.318 70.24 423.418 70.14 422.218 69.94C421.058 69.74 419.918 69.64 418.798 69.64C417.158 69.64 415.698 69.88 414.418 70.36C413.138 70.84 411.978 71.54 410.938 72.46C409.938 73.34 409.038 74.42 408.238 75.7C407.478 76.98 406.758 78.44 406.078 80.08V118H391.258V56.44H399.958C401.478 56.44 402.538 56.72 403.138 57.28C403.738 57.8 404.138 58.76 404.338 60.16L405.238 67.12ZM491.943 56.44L458.403 134.92C457.963 135.96 457.383 136.74 456.663 137.26C455.983 137.82 454.923 138.1 453.483 138.1H442.443L453.963 113.38L429.063 56.44H442.083C443.243 56.44 444.143 56.72 444.783 57.28C445.463 57.84 445.963 58.48 446.283 59.2L459.363 91.12C459.803 92.2 460.163 93.28 460.443 94.36C460.763 95.44 461.063 96.54 461.343 97.66C461.703 96.54 462.063 95.44 462.423 94.36C462.783 93.24 463.183 92.14 463.623 91.06L475.983 59.2C476.303 58.4 476.823 57.74 477.543 57.22C478.303 56.7 479.143 56.44 480.063 56.44H491.943Z" fill="black"/>
<g clip-path="url(#clip0_1_15)">
<path d="M257.675 75.5046C255.69 67.6782 251.924 62.3044 246.483 59.5334C238.868 55.657 231.21 58.526 231.135 58.5566C230.543 58.7939 229.042 59.1247 227.634 59.3925C227.632 58.5704 227.593 57.6127 227.485 56.5728C227.687 56.6538 227.894 56.7272 228.112 56.7912C228.82 57.0024 229.563 57.108 230.337 57.108C233.807 57.108 237.916 54.9846 242.588 50.7682L244.877 48.7014L242.242 47.1001C235.664 43.1013 230.5 42.0204 226.894 43.8883C225.529 44.5955 224.572 45.6424 223.923 46.7355C222.851 45.3232 221.481 44.0466 219.729 43.0357L217.434 47.0138C222.252 49.7942 223.005 55.951 223.032 59.3283C221.729 59.0727 220.412 58.7756 219.864 58.5566C219.789 58.526 212.133 55.657 204.517 59.5334C199.075 62.3044 195.31 67.6782 193.326 75.5046C191.855 81.3086 192.3 87.4157 194.652 93.6528C197.019 99.9284 200.816 104.948 203.584 108.053C207.956 112.957 214.25 118 218.183 118C218.373 118 218.557 117.988 218.734 117.963C222.077 117.513 224.256 116.767 225.5 116.219C226.743 116.768 228.925 117.513 232.267 117.963C232.444 117.988 232.628 118 232.816 118C236.749 118 243.045 112.955 247.416 108.053C250.185 104.948 253.982 99.9284 256.349 93.6528C257.796 89.8116 258.522 86.0194 258.522 82.3159C258.521 80.0072 258.239 77.7338 257.675 75.5046ZM206.007 85.0732L201.474 85.8127C199.416 73.2112 207.875 67.6614 208.235 67.4317L210.704 71.3035C210.297 71.5791 204.473 75.6823 206.007 85.0732Z" fill="#4FB000" stroke="#4FB000" stroke-width="0.001"/>
</g>
<path d="M55.86 119.02C55.38 119.86 54.86 120.48 54.3 120.88C53.78 121.24 53.12 121.42 52.32 121.42C51.48 121.42 50.56 121.12 49.56 120.52C48.6 119.88 47.44 119.18 46.08 118.42C44.72 117.66 43.12 116.98 41.28 116.38C39.48 115.74 37.34 115.42 34.86 115.42C32.62 115.42 30.66 115.7 28.98 116.26C27.3 116.78 25.88 117.52 24.72 118.48C23.6 119.44 22.76 120.6 22.2 121.96C21.64 123.28 21.36 124.74 21.36 126.34C21.36 128.38 21.92 130.08 23.04 131.44C24.2 132.8 25.72 133.96 27.6 134.92C29.48 135.88 31.62 136.74 34.02 137.5C36.42 138.26 38.88 139.08 41.4 139.96C43.92 140.8 46.38 141.8 48.78 142.96C51.18 144.08 53.32 145.52 55.2 147.28C57.08 149 58.58 151.12 59.7 153.64C60.86 156.16 61.44 159.22 61.44 162.82C61.44 166.74 60.76 170.42 59.4 173.86C58.08 177.26 56.12 180.24 53.52 182.8C50.96 185.32 47.82 187.32 44.1 188.8C40.38 190.24 36.12 190.96 31.32 190.96C28.56 190.96 25.84 190.68 23.16 190.12C20.48 189.6 17.9 188.84 15.42 187.84C12.98 186.84 10.68 185.64 8.52 184.24C6.36 182.84 4.44 181.28 2.76 179.56L7.5 171.82C7.9 171.26 8.42 170.8 9.06 170.44C9.7 170.04 10.38 169.84 11.1 169.84C12.1 169.84 13.18 170.26 14.34 171.1C15.5 171.9 16.88 172.8 18.48 173.8C20.08 174.8 21.94 175.72 24.06 176.56C26.22 177.36 28.8 177.76 31.8 177.76C36.4 177.76 39.96 176.68 42.48 174.52C45 172.32 46.26 169.18 46.26 165.1C46.26 162.82 45.68 160.96 44.52 159.52C43.4 158.08 41.9 156.88 40.02 155.92C38.14 154.92 36 154.08 33.6 153.4C31.2 152.72 28.76 151.98 26.28 151.18C23.8 150.38 21.36 149.42 18.96 148.3C16.56 147.18 14.42 145.72 12.54 143.92C10.66 142.12 9.14 139.88 7.98 137.2C6.86 134.48 6.3 131.14 6.3 127.18C6.3 124.02 6.92 120.94 8.16 117.94C9.44 114.94 11.28 112.28 13.68 109.96C16.08 107.64 19.04 105.78 22.56 104.38C26.08 102.98 30.12 102.28 34.68 102.28C39.8 102.28 44.52 103.08 48.84 104.68C53.16 106.28 56.84 108.52 59.88 111.4L55.86 119.02ZM117.045 141.46C116.605 142.02 116.165 142.46 115.725 142.78C115.325 143.1 114.725 143.26 113.925 143.26C113.165 143.26 112.425 143.04 111.705 142.6C110.985 142.12 110.125 141.6 109.125 141.04C108.125 140.44 106.925 139.92 105.525 139.48C104.165 139 102.465 138.76 100.425 138.76C97.825 138.76 95.545 139.24 93.585 140.2C91.625 141.12 89.985 142.46 88.665 144.22C87.385 145.98 86.425 148.12 85.785 150.64C85.145 153.12 84.825 155.94 84.825 159.1C84.825 162.38 85.165 165.3 85.845 167.86C86.565 170.42 87.585 172.58 88.905 174.34C90.225 176.06 91.825 177.38 93.705 178.3C95.585 179.18 97.705 179.62 100.065 179.62C102.425 179.62 104.325 179.34 105.765 178.78C107.245 178.18 108.485 177.54 109.485 176.86C110.485 176.14 111.345 175.5 112.065 174.94C112.825 174.34 113.665 174.04 114.585 174.04C115.785 174.04 116.685 174.5 117.285 175.42L121.545 180.82C119.905 182.74 118.125 184.36 116.205 185.68C114.285 186.96 112.285 188 110.205 188.8C108.165 189.56 106.045 190.1 103.845 190.42C101.685 190.74 99.525 190.9 97.365 190.9C93.565 190.9 89.985 190.2 86.625 188.8C83.265 187.36 80.325 185.28 77.805 182.56C75.285 179.84 73.285 176.52 71.805 172.6C70.365 168.64 69.645 164.14 69.645 159.1C69.645 154.58 70.285 150.4 71.565 146.56C72.885 142.68 74.805 139.34 77.325 136.54C79.845 133.7 82.965 131.48 86.685 129.88C90.405 128.28 94.685 127.48 99.525 127.48C104.125 127.48 108.145 128.22 111.585 129.7C115.065 131.18 118.185 133.3 120.945 136.06L117.045 141.46ZM163.356 163.72C159.076 163.92 155.476 164.3 152.556 164.86C149.636 165.38 147.296 166.06 145.536 166.9C143.776 167.74 142.516 168.72 141.756 169.84C140.996 170.96 140.616 172.18 140.616 173.5C140.616 176.1 141.376 177.96 142.896 179.08C144.456 180.2 146.476 180.76 148.956 180.76C151.996 180.76 154.616 180.22 156.816 179.14C159.056 178.02 161.236 176.34 163.356 174.1V163.72ZM129.396 137.02C136.476 130.54 144.996 127.3 154.956 127.3C158.556 127.3 161.776 127.9 164.616 129.1C167.456 130.26 169.856 131.9 171.816 134.02C173.776 136.1 175.256 138.6 176.256 141.52C177.296 144.44 177.816 147.64 177.816 151.12V190H171.096C169.696 190 168.616 189.8 167.856 189.4C167.096 188.96 166.496 188.1 166.056 186.82L164.736 182.38C163.176 183.78 161.656 185.02 160.176 186.1C158.696 187.14 157.156 188.02 155.556 188.74C153.956 189.46 152.236 190 150.396 190.36C148.596 190.76 146.596 190.96 144.396 190.96C141.796 190.96 139.396 190.62 137.196 189.94C134.996 189.22 133.096 188.16 131.496 186.76C129.896 185.36 128.656 183.62 127.776 181.54C126.896 179.46 126.456 177.04 126.456 174.28C126.456 172.72 126.716 171.18 127.236 169.66C127.756 168.1 128.596 166.62 129.756 165.22C130.956 163.82 132.496 162.5 134.376 161.26C136.256 160.02 138.556 158.94 141.276 158.02C144.036 157.1 147.236 156.36 150.876 155.8C154.516 155.2 158.676 154.84 163.356 154.72V151.12C163.356 147 162.476 143.96 160.716 142C158.956 140 156.416 139 153.096 139C150.696 139 148.696 139.28 147.096 139.84C145.536 140.4 144.156 141.04 142.956 141.76C141.756 142.44 140.656 143.06 139.656 143.62C138.696 144.18 137.616 144.46 136.416 144.46C135.376 144.46 134.496 144.2 133.776 143.68C133.056 143.12 132.476 142.48 132.036 141.76L129.396 137.02ZM205.633 136C206.873 134.76 208.173 133.62 209.533 132.58C210.933 131.5 212.393 130.6 213.913 129.88C215.473 129.12 217.133 128.54 218.893 128.14C220.653 127.7 222.573 127.48 224.653 127.48C228.013 127.48 230.993 128.06 233.593 129.22C236.193 130.34 238.353 131.94 240.073 134.02C241.833 136.06 243.153 138.52 244.033 141.4C244.953 144.24 245.413 147.38 245.413 150.82V190H230.593V150.82C230.593 147.06 229.733 144.16 228.013 142.12C226.293 140.04 223.673 139 220.153 139C217.593 139 215.193 139.58 212.953 140.74C210.713 141.9 208.593 143.48 206.593 145.48V190H191.773V128.44H200.833C202.753 128.44 204.013 129.34 204.613 131.14L205.633 136ZM273.368 136C274.608 134.76 275.908 133.62 277.268 132.58C278.668 131.5 280.128 130.6 281.648 129.88C283.208 129.12 284.868 128.54 286.628 128.14C288.388 127.7 290.308 127.48 292.388 127.48C295.748 127.48 298.728 128.06 301.328 129.22C303.928 130.34 306.088 131.94 307.808 134.02C309.568 136.06 310.888 138.52 311.768 141.4C312.688 144.24 313.148 147.38 313.148 150.82V190H298.328V150.82C298.328 147.06 297.468 144.16 295.748 142.12C294.028 140.04 291.408 139 287.888 139C285.328 139 282.928 139.58 280.688 140.74C278.448 141.9 276.328 143.48 274.328 145.48V190H259.508V128.44H268.568C270.488 128.44 271.748 129.34 272.348 131.14L273.368 136ZM366.902 152.14C366.902 150.22 366.622 148.42 366.062 146.74C365.542 145.02 364.742 143.52 363.662 142.24C362.582 140.96 361.202 139.96 359.522 139.24C357.882 138.48 355.962 138.1 353.762 138.1C349.482 138.1 346.102 139.32 343.622 141.76C341.182 144.2 339.622 147.66 338.942 152.14H366.902ZM338.642 161.08C338.882 164.24 339.442 166.98 340.322 169.3C341.202 171.58 342.362 173.48 343.802 175C345.242 176.48 346.942 177.6 348.902 178.36C350.902 179.08 353.102 179.44 355.502 179.44C357.902 179.44 359.962 179.16 361.682 178.6C363.442 178.04 364.962 177.42 366.242 176.74C367.562 176.06 368.702 175.44 369.662 174.88C370.662 174.32 371.622 174.04 372.542 174.04C373.782 174.04 374.702 174.5 375.302 175.42L379.562 180.82C377.922 182.74 376.082 184.36 374.042 185.68C372.002 186.96 369.862 188 367.622 188.8C365.422 189.56 363.162 190.1 360.842 190.42C358.562 190.74 356.342 190.9 354.182 190.9C349.902 190.9 345.922 190.2 342.242 188.8C338.562 187.36 335.362 185.26 332.642 182.5C329.922 179.7 327.782 176.26 326.222 172.18C324.662 168.06 323.882 163.3 323.882 157.9C323.882 153.7 324.562 149.76 325.922 146.08C327.282 142.36 329.222 139.14 331.742 136.42C334.302 133.66 337.402 131.48 341.042 129.88C344.722 128.28 348.862 127.48 353.462 127.48C357.342 127.48 360.922 128.1 364.202 129.34C367.482 130.58 370.302 132.4 372.662 134.8C375.022 137.16 376.862 140.08 378.182 143.56C379.542 147 380.222 150.94 380.222 155.38C380.222 157.62 379.982 159.14 379.502 159.94C379.022 160.7 378.102 161.08 376.742 161.08H338.642ZM405.323 139.12C407.243 135.44 409.523 132.56 412.163 130.48C414.803 128.36 417.923 127.3 421.523 127.3C424.363 127.3 426.643 127.92 428.363 129.16L427.403 140.26C427.203 140.98 426.903 141.5 426.503 141.82C426.143 142.1 425.643 142.24 425.003 142.24C424.403 142.24 423.503 142.14 422.303 141.94C421.143 141.74 420.003 141.64 418.883 141.64C417.243 141.64 415.783 141.88 414.503 142.36C413.223 142.84 412.063 143.54 411.023 144.46C410.023 145.34 409.123 146.42 408.323 147.7C407.563 148.98 406.843 150.44 406.163 152.08V190H391.343V128.44H400.043C401.563 128.44 402.623 128.72 403.223 129.28C403.823 129.8 404.223 130.76 404.423 132.16L405.323 139.12Z" fill="black"/>
<path d="M514.031 178.218C516.248 178.218 517.421 177.005 517.421 174.787V164.533C517.421 155.911 513.068 151.6 504.279 151.6H494.067C491.849 151.6 490.635 152.814 490.635 154.948C490.635 157.125 491.849 158.339 494.067 158.339H504.195C508.297 158.339 510.682 160.557 510.682 164.909V174.787C510.682 177.005 511.896 178.218 514.031 178.218ZM443.969 178.218C446.146 178.218 447.317 177.005 447.317 174.787V164.909C447.317 160.557 449.661 158.339 453.846 158.339H463.975C466.151 158.339 467.365 157.125 467.365 154.948C467.365 152.814 466.151 151.6 463.975 151.6H453.721C445.016 151.6 440.579 155.911 440.579 164.533V174.787C440.579 177.005 441.793 178.218 443.969 178.218ZM460.501 206.009H463.305V173.991H460.501V206.009ZM466.862 206.009H472.178V173.991H466.862V206.009ZM474.563 206.009H477.912V173.991H474.563V206.009ZM480.883 206.009H486.073V173.991H480.883V206.009ZM488.208 206.009H492.309V173.991H488.208V206.009ZM493.816 206.009H496.452V173.991H493.816V206.009ZM453.721 228.4H463.975C466.151 228.4 467.365 227.186 467.365 225.052C467.365 222.875 466.151 221.662 463.975 221.662H453.846C449.661 221.662 447.317 219.443 447.317 215.091V205.214C447.317 202.995 446.104 201.782 443.969 201.782C441.751 201.782 440.579 202.995 440.579 205.214V215.426C440.579 224.089 445.016 228.4 453.721 228.4ZM494.067 228.4H504.279C513.068 228.4 517.421 224.047 517.421 215.426V205.214C517.421 202.995 516.207 201.782 514.031 201.782C511.854 201.782 510.682 202.995 510.682 205.214V215.091C510.682 219.443 508.297 221.662 504.195 221.662H494.067C491.849 221.662 490.635 222.875 490.635 225.052C490.635 227.186 491.849 228.4 494.067 228.4Z" fill="#EF6C00"/>
<defs>
<clipPath id="clip0_1_15">
<rect width="75" height="75" fill="white" transform="translate(188 43)"/>
</clipPath>
</defs>
</svg>
